<mxfile host="app.diagrams.net" agent="Mozilla/5.0 (Windows NT 10.0; Win64; x64) AppleWebKit/537.36 (KHTML, like Gecko) Chrome/127.0.0.0 Safari/537.36 Edg/127.0.0.0" version="24.7.7">
  <diagram name="第 1 页" id="0odNos-ram8B0JtTMt9t">
    <mxGraphModel dx="1386" dy="1575" grid="1" gridSize="10" guides="1" tooltips="1" connect="1" arrows="1" fold="1" page="1" pageScale="1" pageWidth="1169" pageHeight="827" math="1" shadow="0">
      <root>
        <mxCell id="0" />
        <mxCell id="1" parent="0" />
        <mxCell id="C153-lScjyPloALbCFHb-23" value="&lt;font style=&quot;font-size: 16px;&quot;&gt;$$ {\mathrm{E}_{u}^{t}}^{(1)&#39;}$$&lt;/font&gt;" style="text;html=1;align=center;verticalAlign=middle;whiteSpace=wrap;rounded=0;" parent="1" vertex="1">
          <mxGeometry x="20" y="130" width="50" height="30" as="geometry" />
        </mxCell>
        <mxCell id="C153-lScjyPloALbCFHb-24" value="&lt;font style=&quot;font-size: 16px;&quot;&gt;$$ {\mathrm{E}_{i}^{t}}^{(1)&#39;}$$&lt;/font&gt;" style="text;html=1;align=center;verticalAlign=middle;whiteSpace=wrap;rounded=0;" parent="1" vertex="1">
          <mxGeometry x="86.25" y="510" width="45" height="40" as="geometry" />
        </mxCell>
        <mxCell id="C153-lScjyPloALbCFHb-28" value="" style="group;rotation=90;" parent="1" vertex="1" connectable="0">
          <mxGeometry x="60" y="440" width="90" height="30" as="geometry" />
        </mxCell>
        <mxCell id="C153-lScjyPloALbCFHb-25" value="" style="whiteSpace=wrap;html=1;aspect=fixed;fillColor=#dae8fc;strokeColor=#6c8ebf;rotation=90;" parent="C153-lScjyPloALbCFHb-28" vertex="1">
          <mxGeometry x="30" y="-30" width="30" height="30" as="geometry" />
        </mxCell>
        <mxCell id="C153-lScjyPloALbCFHb-26" value="" style="whiteSpace=wrap;html=1;aspect=fixed;fillColor=#dae8fc;strokeColor=#6c8ebf;rotation=90;" parent="C153-lScjyPloALbCFHb-28" vertex="1">
          <mxGeometry x="30" width="30" height="30" as="geometry" />
        </mxCell>
        <mxCell id="C153-lScjyPloALbCFHb-27" value="" style="whiteSpace=wrap;html=1;aspect=fixed;fillColor=#dae8fc;strokeColor=#6c8ebf;rotation=90;" parent="C153-lScjyPloALbCFHb-28" vertex="1">
          <mxGeometry x="30" y="30" width="30" height="30" as="geometry" />
        </mxCell>
        <mxCell id="C153-lScjyPloALbCFHb-29" value="" style="group;fillColor=#ffe6cc;strokeColor=#d79b00;rotation=0;" parent="1" vertex="1" connectable="0">
          <mxGeometry x="70" y="130" width="90" height="30" as="geometry" />
        </mxCell>
        <mxCell id="C153-lScjyPloALbCFHb-30" value="" style="whiteSpace=wrap;html=1;aspect=fixed;fillColor=#ffe6cc;strokeColor=#d79b00;rotation=0;" parent="C153-lScjyPloALbCFHb-29" vertex="1">
          <mxGeometry width="30" height="30" as="geometry" />
        </mxCell>
        <mxCell id="C153-lScjyPloALbCFHb-31" value="" style="whiteSpace=wrap;html=1;aspect=fixed;fillColor=#ffe6cc;strokeColor=#d79b00;rotation=0;" parent="C153-lScjyPloALbCFHb-29" vertex="1">
          <mxGeometry x="30" width="30" height="30" as="geometry" />
        </mxCell>
        <mxCell id="C153-lScjyPloALbCFHb-32" value="" style="whiteSpace=wrap;html=1;aspect=fixed;fillColor=#ffe6cc;strokeColor=#d79b00;rotation=0;" parent="C153-lScjyPloALbCFHb-29" vertex="1">
          <mxGeometry x="60" width="30" height="30" as="geometry" />
        </mxCell>
        <mxCell id="C153-lScjyPloALbCFHb-33" value="&lt;font style=&quot;font-size: 16px;&quot;&gt;$$ {\mathrm{E}_{u}^{t}}^{(2)&#39;}$$&lt;/font&gt;" style="text;html=1;align=center;verticalAlign=middle;whiteSpace=wrap;rounded=0;" parent="1" vertex="1">
          <mxGeometry x="640" y="10" width="45" height="40" as="geometry" />
        </mxCell>
        <mxCell id="C153-lScjyPloALbCFHb-34" value="&lt;font style=&quot;font-size: 16px;&quot;&gt;$$ {\mathrm{E}_{i}^{t}}^{(2)&#39;}$$&lt;/font&gt;" style="text;html=1;align=center;verticalAlign=middle;whiteSpace=wrap;rounded=0;" parent="1" vertex="1">
          <mxGeometry x="897.5" width="45" height="40" as="geometry" />
        </mxCell>
        <mxCell id="C153-lScjyPloALbCFHb-51" value="&lt;font style=&quot;font-size: 16px;&quot;&gt;$$ {\mathrm{E}_{u}^{t}}^{(3)&#39;}$$&lt;/font&gt;" style="text;html=1;align=center;verticalAlign=middle;whiteSpace=wrap;rounded=0;" parent="1" vertex="1">
          <mxGeometry x="680" y="10" width="45" height="40" as="geometry" />
        </mxCell>
        <mxCell id="C153-lScjyPloALbCFHb-52" value="&lt;font style=&quot;font-size: 16px;&quot;&gt;$$ {\mathrm{E}_{i}^{t}}^{(3)&#39;}$$&lt;/font&gt;" style="text;html=1;align=center;verticalAlign=middle;whiteSpace=wrap;rounded=0;fontFamily=Helvetica;fontSize=12;fontColor=default;" parent="1" vertex="1">
          <mxGeometry x="940" width="45" height="40" as="geometry" />
        </mxCell>
        <mxCell id="C153-lScjyPloALbCFHb-72" value="&lt;font style=&quot;font-size: 16px;&quot;&gt;$$ {\mathrm{E}_{u}^{t}}^{(l)&#39;}$$&lt;/font&gt;" style="text;html=1;align=center;verticalAlign=middle;whiteSpace=wrap;rounded=0;" parent="1" vertex="1">
          <mxGeometry x="717.5" y="10" width="45" height="40" as="geometry" />
        </mxCell>
        <mxCell id="C153-lScjyPloALbCFHb-73" value="&lt;font style=&quot;font-size: 16px;&quot;&gt;$$ {\mathrm{E}_{i}^{t}}^{(l)&#39;}$$&lt;/font&gt;" style="text;html=1;align=center;verticalAlign=middle;whiteSpace=wrap;rounded=0;" parent="1" vertex="1">
          <mxGeometry x="980" width="45" height="40" as="geometry" />
        </mxCell>
        <mxCell id="C153-lScjyPloALbCFHb-43" value="GCN" style="rounded=1;whiteSpace=wrap;html=1;fillColor=#f5f5f5;gradientColor=#b3b3b3;strokeColor=#666666;" parent="1" vertex="1">
          <mxGeometry x="260" y="165" width="60" height="30" as="geometry" />
        </mxCell>
        <mxCell id="hxnIVphIfkXCkqFVnGNQ-16" value="" style="group;fillColor=#f8cecc;strokeColor=#b85450;rotation=0;" vertex="1" connectable="0" parent="1">
          <mxGeometry x="70" y="200" width="90" height="30" as="geometry" />
        </mxCell>
        <mxCell id="hxnIVphIfkXCkqFVnGNQ-17" value="" style="whiteSpace=wrap;html=1;aspect=fixed;fillColor=#f8cecc;strokeColor=#b85450;rotation=0;" vertex="1" parent="hxnIVphIfkXCkqFVnGNQ-16">
          <mxGeometry width="30" height="30" as="geometry" />
        </mxCell>
        <mxCell id="hxnIVphIfkXCkqFVnGNQ-18" value="" style="whiteSpace=wrap;html=1;aspect=fixed;fillColor=#f8cecc;strokeColor=#b85450;rotation=0;" vertex="1" parent="hxnIVphIfkXCkqFVnGNQ-16">
          <mxGeometry x="30" width="30" height="30" as="geometry" />
        </mxCell>
        <mxCell id="hxnIVphIfkXCkqFVnGNQ-19" value="" style="whiteSpace=wrap;html=1;aspect=fixed;fillColor=#f8cecc;strokeColor=#b85450;rotation=0;" vertex="1" parent="hxnIVphIfkXCkqFVnGNQ-16">
          <mxGeometry x="60" width="30" height="30" as="geometry" />
        </mxCell>
        <mxCell id="hxnIVphIfkXCkqFVnGNQ-20" value="" style="group;fillColor=#f8cecc;strokeColor=#b85450;rotation=90;" vertex="1" connectable="0" parent="1">
          <mxGeometry x="60" y="330" width="90" height="30" as="geometry" />
        </mxCell>
        <mxCell id="hxnIVphIfkXCkqFVnGNQ-21" value="" style="whiteSpace=wrap;html=1;aspect=fixed;fillColor=#f8cecc;strokeColor=#b85450;rotation=90;" vertex="1" parent="hxnIVphIfkXCkqFVnGNQ-20">
          <mxGeometry x="30" y="-30" width="30" height="30" as="geometry" />
        </mxCell>
        <mxCell id="hxnIVphIfkXCkqFVnGNQ-22" value="" style="whiteSpace=wrap;html=1;aspect=fixed;fillColor=#f8cecc;strokeColor=#b85450;rotation=90;" vertex="1" parent="hxnIVphIfkXCkqFVnGNQ-20">
          <mxGeometry x="30" width="30" height="30" as="geometry" />
        </mxCell>
        <mxCell id="hxnIVphIfkXCkqFVnGNQ-23" value="" style="whiteSpace=wrap;html=1;aspect=fixed;fillColor=#f8cecc;strokeColor=#b85450;rotation=90;" vertex="1" parent="hxnIVphIfkXCkqFVnGNQ-20">
          <mxGeometry x="30" y="30" width="30" height="30" as="geometry" />
        </mxCell>
        <mxCell id="hxnIVphIfkXCkqFVnGNQ-32" style="edgeStyle=orthogonalEdgeStyle;rounded=0;orthogonalLoop=1;jettySize=auto;html=1;exitX=1;exitY=0.5;exitDx=0;exitDy=0;" edge="1" parent="1" source="hxnIVphIfkXCkqFVnGNQ-24">
          <mxGeometry relative="1" as="geometry">
            <mxPoint x="260" y="180" as="targetPoint" />
          </mxGeometry>
        </mxCell>
        <mxCell id="hxnIVphIfkXCkqFVnGNQ-24" value="&lt;font style=&quot;font-size: 16px;&quot;&gt;＋&lt;/font&gt;" style="ellipse;whiteSpace=wrap;html=1;aspect=fixed;" vertex="1" parent="1">
          <mxGeometry x="200" y="160" width="40" height="40" as="geometry" />
        </mxCell>
        <mxCell id="hxnIVphIfkXCkqFVnGNQ-25" style="edgeStyle=orthogonalEdgeStyle;rounded=0;orthogonalLoop=1;jettySize=auto;html=1;exitX=1;exitY=0.5;exitDx=0;exitDy=0;entryX=0;entryY=0.5;entryDx=0;entryDy=0;" edge="1" parent="1" source="C153-lScjyPloALbCFHb-32" target="hxnIVphIfkXCkqFVnGNQ-24">
          <mxGeometry relative="1" as="geometry" />
        </mxCell>
        <mxCell id="hxnIVphIfkXCkqFVnGNQ-30" style="edgeStyle=orthogonalEdgeStyle;rounded=0;orthogonalLoop=1;jettySize=auto;html=1;exitX=1;exitY=0.5;exitDx=0;exitDy=0;entryX=0;entryY=0.5;entryDx=0;entryDy=0;" edge="1" parent="1" source="hxnIVphIfkXCkqFVnGNQ-19" target="hxnIVphIfkXCkqFVnGNQ-24">
          <mxGeometry relative="1" as="geometry" />
        </mxCell>
        <mxCell id="hxnIVphIfkXCkqFVnGNQ-31" value="&lt;font style=&quot;font-size: 16px;&quot;&gt;Noise&lt;/font&gt;" style="text;html=1;align=center;verticalAlign=middle;whiteSpace=wrap;rounded=0;" vertex="1" parent="1">
          <mxGeometry x="20" y="200" width="50" height="30" as="geometry" />
        </mxCell>
      </root>
    </mxGraphModel>
  </diagram>
</mxfile>
